# xmcd CD database file
#
# Track frame offsets:
#	150
#	26952
#	46272
#	68507
#	87939
#	116156
#	139346
#	163699
#	188819
#	213915
#	282948
#
# Disc length: 4311 seconds
#
# Revision: 0
# Processed by: cddbd v1.5.2PL0 Copyright (c) Steve Scherf et al.
# Submitted via: CDex 1.51
#
DISCID=9f10d50b
DTITLE=Various Artist - Infinite Rhythms
DYEAR=1900
DGENRE=New Age
TTITLE0=Ahava Raba - YofiYah
TTITLE1=River Goddess - Meneesh de Moor
TTITLE2=Rakandao - Shaman's Dream
TTITLE3=Bhaja Hure Mana - One at Last
TTITLE4=Brasilero - Shaman's Dream
TTITLE5=Jana - Ustad Sultan Khan (Radar One rmx)
TTITLE6=Jah Ray - Vargo
TTITLE7=Prayer to Shakyamuni Buddha - Jai Uttal and Ben Leinbach
TTITLE8=Shambhala Moon - David Nichtern
TTITLE9=Bolo Ram - Wah!
TTITLE10=Om Shanti - Daphne Tse and Matt Pszonak
EXTD=
EXTT0=
EXTT1=
EXTT2=
EXTT3=
EXTT4=
EXTT5=
EXTT6=
EXTT7=
EXTT8=
EXTT9=
EXTT10=
PLAYORDER=
